<?xml version="1.0" encoding="UTF-8"?>
<!DOCTYPE svg PUBLIC "-//W3C//DTD SVG 1.1//EN" "http://www.w3.org/Graphics/SVG/1.1/DTD/svg11.dtd">
<!-- Creator: CorelDRAW 2019 (64-Bit) -->
<svg xmlns="http://www.w3.org/2000/svg" xml:space="preserve" width="1.45944in" height="0.415909in" version="1.1" style="shape-rendering:geometricPrecision; text-rendering:geometricPrecision; image-rendering:optimizeQuality; fill-rule:evenodd; clip-rule:evenodd"
viewBox="0 0 134.29 38.27"
 xmlns:xlink="http://www.w3.org/1999/xlink"
 xmlns:xodm="http://www.corel.com/coreldraw/odm/2003">
 <defs>
  <style type="text/css">
   <![CDATA[
    .fil1 {fill:#0F4E08}
    .fil0 {fill:#FFAF0F}
    .fil2 {fill:#0F4E08;fill-rule:nonzero}
   ]]>
  </style>
 </defs>
 <g id="Layer_x0020_1">
  <metadata id="CorelCorpID_0Corel-Layer"/>
  <g id="_2939287529648">
   <path class="fil0" d="M23.26 25.66c0.3,-0.99 0.68,-1.7 1.77,-1.99 1.55,-0.41 3.3,0.78 3.05,2.34 -0.32,1.99 -0.77,3.89 -0.63,5.9 0.07,1.03 0.23,2.07 0.5,3.1 -0.78,0.1 -2.14,-1.02 -2.68,-1.55 -2.07,-2.01 -2.86,-5.04 -2.01,-7.8z"/>
   <path class="fil1" d="M20.8 19.31c-5.01,4.87 -3.34,13.19 2.96,15.88 -5.1,1.15 -10.16,-1.95 -11.49,-6.95 -1.37,-5.11 1.62,-10.37 6.68,-11.83 1.1,-0.32 2.15,-0.2 2.49,1.07 0.15,0.57 0.01,1.16 -0.36,1.57 -0.08,0.09 -0.19,0.17 -0.28,0.26z"/>
   <path class="fil1" d="M7.87 25.8c0.39,1.44 0.98,2.78 1.84,3.88 0.17,0.22 0.37,0.42 0.45,0.71 0.2,0.75 -0.25,1.53 -1,1.73 -0.43,0.11 -0.82,-0.06 -1.19,-0.22 -11.36,-4.92 -10.33,-21.09 1.49,-24.26 3.57,-0.96 7.2,-0.32 10.1,1.5 0.02,0.01 0.44,0.19 0.55,0.62 0.13,0.49 -0.19,1.1 -0.66,1.13 -0.26,0.02 0.01,0 0,0 -0.14,0 -0.3,0.01 -0.44,0.01 -0.92,0.02 -1.86,0.15 -2.79,0.4 -6.31,1.69 -10.05,8.18 -8.36,14.49z"/>
  </g>
  <path class="fil2" d="M123.02 2.35c1.1,0 2.19,0 3.29,0 0.89,0.04 1.02,0.82 1.05,1.52l0 9.27c0.88,-1.18 1.58,-1.83 3.11,-1.83 3.15,0 3.82,3.29 3.82,5.8l0 17.3 -4.71 0 0 -16.99c0,-0.65 -0.24,-1.46 -1.03,-1.46 -0.37,0 -0.78,0.32 -1.2,0.96l0 17.49 -4.71 0c0,-10.55 0,-21.09 0,-31.64 -0,-0.13 0.14,-0.39 0.37,-0.43zm-49.94 -0.3c0.77,0 1.43,0.27 1.97,0.81 0.53,0.55 0.8,1.19 0.8,1.95 0,0.76 -0.27,1.4 -0.8,1.95 -0.54,0.54 -1.2,0.81 -1.97,0.81 -0.76,0 -1.41,-0.27 -1.95,-0.81 -0.53,-0.55 -0.8,-1.18 -0.8,-1.92 0,-0.76 0.28,-1.41 0.83,-1.96 0.56,-0.55 1.2,-0.83 1.92,-0.83zm-29.81 30.02c-1.57,2.68 -4.2,3.41 -5.91,0.78 -3.26,-5.05 -1.88,-14.45 1.38,-18.57 1.56,-1.97 3.7,-2.9 6.37,-2.96 1.5,-0.04 2.19,0.72 2.19,2.18l0 12.83c0,4.94 2.24,2.92 0.08,6.09 -0.52,0.74 -2.44,3.36 -4.12,-0.34zm-0.67 -14.79c-0.76,0.41 -1.32,1.1 -1.68,2.06 -0.68,1.81 -0.69,8.3 0.18,10.21 0.3,0.67 1.03,0.96 1.5,0.35l0 -12.61zm15.32 -16.6c-0.01,1.02 -0.02,2.03 -0,3.05 0.01,0.46 -0.14,0.71 -0.59,0.86 -0.39,0.13 -0.68,0.33 -0.89,0.59 -0.44,0.57 -0.65,1.24 -0.65,2l0 2.37 2.13 0 0 3.95 -2.13 0 0 16.49c0,4.79 -1.01,8.17 -6.68,8.28l0 -5.11c2.06,0 1.97,-2.48 1.97,-3.98l0 -15.68 -1.97 0 0 -3.95 1.97 0 0 -2.09c0,-1.71 0.3,-3.16 0.89,-4.34 0.59,-1.18 1.42,-2.02 2.47,-2.54 0.37,-0.19 0.84,-0.33 1.4,-0.43 0.31,-0.05 1,-0.13 1.36,-0.14 0.61,-0.02 0.71,0.16 0.7,0.68zm7.21 15.07c0.82,-1.23 0.79,-3.12 2.34,-3.98 0.28,-0.16 0.64,-0.26 1.07,-0.34 0.64,-0.12 0.96,-0.08 0.94,0.62 0,1.46 0,2.92 0,4.38 -0.01,0.79 0.02,0.62 -0.75,0.97 -1.87,0.84 -3.61,2.96 -3.61,4.88l0 12.14 -4.71 0 0 -17.28c0,-1 -0.35,-1.8 -1.06,-2.4l2.86 -3.42c0.94,0.36 1.62,0.83 2.02,1.38 0.41,0.57 0.7,1.59 0.89,3.06zm5.64 -4.14l4.71 0 0 22.8 -4.71 0 0 -22.8zm11.46 1.99c0.62,-0.89 1.19,-1.49 1.7,-1.81 0.51,-0.32 1.1,-0.48 1.77,-0.48 1.39,0 2.5,0.77 3.32,2.29 0.89,-1.04 1.53,-1.65 1.89,-1.85 0.48,-0.3 1.03,-0.45 1.64,-0.45 1.06,0 1.92,0.41 2.56,1.21 0.82,1.03 1.24,2.52 1.24,4.45l0 17.44 -4.71 0 0 -16.89c0,-0.66 -0.21,-1.56 -1.03,-1.56 -0.5,0 -0.95,0.62 -1.2,0.99l0 17.46 -4.71 0 0 -16.89c0,-0.61 -0.17,-1.56 -0.95,-1.56 -0.52,0 -0.97,0.59 -1.22,0.99l0 17.46 -4.71 0 0 -17.91c0,-0.81 -0.27,-1.43 -0.81,-1.88 0.68,-0.8 1.36,-1.61 2.05,-2.41 0.74,-0.87 1,-0.96 1.7,-0.44 0.65,0.48 1.17,1.05 1.47,1.83zm23.76 18.46c-1.03,1.76 -2.09,2.65 -3.19,2.65 -1.1,0 -2,-0.63 -2.72,-1.87 -2.56,-4.46 -2.52,-13.4 1.2,-18.24 1.53,-2 3.69,-3.3 6.56,-3.3 1.71,0 2.19,0.81 2.19,2.51l0 12.5c0,1.42 0.11,2.44 0.31,3.03 0.14,0.4 0.36,0.72 0.57,1.04 0.16,0.26 0.29,0.41 0,0.86 -1.69,2.69 -2.8,5.49 -4.92,0.81zm-0.67 -14.79c-0.76,0.41 -1.32,1.1 -1.68,2.06 -0.54,1.43 -1.05,10.87 0.95,10.87 0.32,0 0.57,-0.11 0.73,-0.32l0 -12.61zm7.05 12.54c4.79,1.71 3.88,-2.52 1.71,-6.5 -1.69,-3.09 -2.49,-6.03 -1.6,-8.73 0.89,-2.7 5.53,-3.59 7.94,-2.26l-0.08 3.6c-10.13,-1.29 2.24,10.57 -0.18,15.52 -1.19,2.43 -3.57,3.21 -7.79,3l0 -4.62z"/>
 </g>
</svg>
